<?xml version="1.0" encoding="utf-8"?>
<!-- Generator: Adobe Illustrator 26.0.3, SVG Export Plug-In . SVG Version: 6.00 Build 0)  -->
<svg version="1.1" id="Layer_1" xmlns="http://www.w3.org/2000/svg" xmlns:xlink="http://www.w3.org/1999/xlink" x="0px" y="0px"
	 viewBox="0 0 936 288" style="enable-background:new 0 0 936 288;" xml:space="preserve">
<style type="text/css">
	.st0{clip-path:url(#SVGID_00000181789058841027080680000014049678825190982803_);fill:#FFFFFF;}
	.st1{fill:#0D1117;}
	.st2{fill:none;stroke:#FFFFFF;stroke-linejoin:round;stroke-miterlimit:10;}
	.st3{fill:#0072BD;}
	.st4{fill:none;stroke:#000000;stroke-miterlimit:10;}
	.st5{fill:#D95319;}
	.st6{fill:#EDB120;}
	.st7{fill:#7E2F8E;}
	.st8{fill:#77AC30;}
	.st9{fill:#4DBEEE;}
	.st10{fill:none;stroke:#FFFFFF;stroke-linecap:square;stroke-linejoin:round;stroke-miterlimit:10;}
	.st11{fill:#FFFFFF;}
	.st12{font-family:'MyriadPro-Regular';}
	.st13{font-size:24px;}
</style>
<g>
	<g>
		<g>
			<defs>
				<rect id="SVGID_1_" width="936" height="288"/>
			</defs>
			<clipPath id="SVGID_00000166634469586914732130000010898654201586896000_">
				<use xlink:href="#SVGID_1_"  style="overflow:visible;"/>
			</clipPath>
			
				<rect style="clip-path:url(#SVGID_00000166634469586914732130000010898654201586896000_);fill:#FFFFFF;" width="936" height="288"/>
		</g>
	</g>
	<g>
		<g>
			<rect class="st1" width="936" height="288"/>
			<path class="st1" d="M122,216h725V81H122V216z"/>
		</g>
	</g>
	<g>
		<line class="st2" x1="122" y1="216" x2="847" y2="216"/>
	</g>
	<g>
		<path class="st3" d="M160.8,216v-66.7h-19.4V216H160.8z M342.7,216V98.6h-19.4V216H342.7z M524.5,216V87.5h-19.4V216H524.5z
			 M706.4,216V85H687v131H706.4z"/>
	</g>
	<g>
		<path class="st4" d="M141.4,216v-66.7h19.4V216H141.4z"/>
		<path class="st4" d="M323.3,216V98.6h19.4V216H323.3z"/>
		<path class="st4" d="M505.1,216V87.5h19.4V216H505.1z"/>
		<path class="st4" d="M687,216V85h19.4v131H687z"/>
	</g>
	<g>
		<path class="st5" d="M185,216v-49h-19.4v49H185z M366.9,216V98h-19.4v118H366.9z M548.8,216V88.8h-19.4V216H548.8z M730.6,216
			V86.4h-19.4V216H730.6z"/>
	</g>
	<g>
		<path class="st4" d="M165.6,216v-49H185v49H165.6z"/>
		<path class="st4" d="M347.5,216V98h19.4v118H347.5z"/>
		<path class="st4" d="M529.4,216V88.8h19.4V216H529.4z"/>
		<path class="st4" d="M711.2,216V86.4h19.4V216H711.2z"/>
	</g>
	<g>
		<path class="st6" d="M209.3,216v-16h-19.4v16H209.3z M391.1,216v-27.5h-19.4V216H391.1z M573,216v-70h-19.4v70H573z M754.9,216
			v-82.9h-19.4V216H754.9z"/>
	</g>
	<g>
		<path class="st4" d="M189.9,216v-16h19.4v16H189.9z"/>
		<path class="st4" d="M371.7,216v-27.5h19.4V216H371.7z"/>
		<path class="st4" d="M553.6,216v-70H573v70H553.6z"/>
		<path class="st4" d="M735.5,216v-82.9h19.4V216H735.5z"/>
	</g>
	<g>
		<path class="st7" d="M233.5,216v-10h-19.4v10H233.5z M415.4,216v-14.1H396V216H415.4z M597.3,216v-50.3h-19.4V216H597.3z
			 M779.1,216v-70.6h-19.4V216H779.1z"/>
	</g>
	<g>
		<path class="st4" d="M214.1,216v-10h19.4v10H214.1z"/>
		<path class="st4" d="M396,216v-14.1h19.4V216H396z"/>
		<path class="st4" d="M577.9,216v-50.3h19.4V216H577.9z"/>
		<path class="st4" d="M759.7,216v-70.6h19.4V216H759.7z"/>
	</g>
	<g>
		<path class="st8" d="M257.8,216v-27.2h-19.4V216H257.8z M439.6,216v-83.7h-19.4V216H439.6z M621.5,216V101.3h-19.4V216H621.5z
			 M803.4,216V92.7H784V216H803.4z"/>
	</g>
	<g>
		<path class="st4" d="M238.4,216v-27.2h19.4V216H238.4z"/>
		<path class="st4" d="M420.2,216v-83.7h19.4V216H420.2z"/>
		<path class="st4" d="M602.1,216V101.3h19.4V216H602.1z"/>
		<path class="st4" d="M784,216V92.7h19.4V216H784z"/>
	</g>
	<g>
		<path class="st9" d="M282,216v-33.1h-19.4V216H282z M463.9,216v-46.4h-19.4V216H463.9z M645.7,216v-67.3h-19.4V216H645.7z
			 M827.6,216v-93.3h-19.4V216H827.6z"/>
	</g>
	<g>
		<path class="st4" d="M262.6,216v-33.1H282V216H262.6z"/>
		<path class="st4" d="M444.5,216v-46.4h19.4V216H444.5z"/>
		<path class="st4" d="M626.3,216v-67.3h19.4V216H626.3z"/>
		<path class="st4" d="M808.2,216v-93.3h19.4V216H808.2z"/>
	</g>
	<g>
		<line class="st10" x1="122" y1="216" x2="847" y2="216"/>
		<line class="st10" x1="122" y1="81" x2="847" y2="81"/>
	</g>
	<g transform="translate(211.7157,224.8)">
		<text transform="matrix(1 0 0 1 -7 25)" class="st11 st12 st13">0</text>
	</g>
	<g transform="translate(393.5719,224.8)">
		<text transform="matrix(1 0 0 1 -7 25)" class="st11 st12 st13">5</text>
	</g>
	<g transform="translate(575.4281,224.8)">
		<text transform="matrix(1 0 0 1 -13.5 25)" class="st11 st12 st13">10</text>
	</g>
	<g transform="translate(757.2843,224.8)">
		<text transform="matrix(1 0 0 1 -13.5 25)" class="st11 st12 st13">15</text>
	</g>
	<g transform="translate(484.5003,256.8)">
		<text transform="matrix(1 0 0 1 -25.5 25)" class="st11 st12 st13">SNR</text>
	</g>
	<g>
		<line class="st10" x1="122" y1="216" x2="122" y2="81"/>
		<line class="st10" x1="847" y1="216" x2="847" y2="81"/>
		<line class="st10" x1="122" y1="216" x2="129.2" y2="216"/>
		<line class="st10" x1="122" y1="148.5" x2="129.2" y2="148.5"/>
		<line class="st10" x1="122" y1="81" x2="129.2" y2="81"/>
		<line class="st10" x1="847" y1="216" x2="839.8" y2="216"/>
		<line class="st10" x1="847" y1="148.5" x2="839.8" y2="148.5"/>
		<line class="st10" x1="847" y1="81" x2="839.8" y2="81"/>
	</g>
	<g transform="translate(113.2,216)">
		<text transform="matrix(1 0 0 1 -14 9.5)" class="st11 st12 st13">0</text>
	</g>
	<g transform="translate(113.2,148.5)">
		<text transform="matrix(1 0 0 1 -34 9.5)" class="st11 st12 st13">0.5</text>
	</g>
	<g transform="translate(113.2,81)">
		<text transform="matrix(1 0 0 1 -14 9.5)" class="st11 st12 st13">1</text>
	</g>
	<g transform="translate(73.2,148.4999) rotate(-90)">
		<text transform="matrix(1 0 0 1 -58.5001 -6)" class="st11 st12 st13">F-Measure</text>
	</g>
	<g transform="translate(112.5,35.5)">
		<text transform="matrix(1 0 0 1 0 9.5)" class="st11 st12 st13">Ours</text>
	</g>
	<g>
		<path class="st3" d="M108,47.1V23.9H48v23.2H108z"/>
	</g>
	<g>
		<path class="st4" d="M48,47.1V23.9h60v23.2H48z"/>
	</g>
	<g transform="translate(242,35.5)">
		<text transform="matrix(1 0 0 1 0 9.5)" class="st11 st12 st13">Delphos</text>
	</g>
	<g>
		<path class="st5" d="M237.5,47.1V23.9h-60v23.2H237.5z"/>
	</g>
	<g>
		<path class="st4" d="M177.5,47.1V23.9h60v23.2H177.5z"/>
	</g>
	<g transform="translate(407.5,35.5)">
		<text transform="matrix(1 0 0 1 0 9.5)" class="st11 st12 st13">Hilbert</text>
	</g>
	<g>
		<path class="st6" d="M403,47.1V23.9h-60v23.2H403z"/>
	</g>
	<g>
		<path class="st4" d="M343,47.1V23.9h60v23.2H343z"/>
	</g>
	<g transform="translate(554,35.5)">
		<text transform="matrix(1 0 0 1 0 9.5)" class="st11 st12 st13">STE</text>
	</g>
	<g>
		<path class="st7" d="M549.5,47.1V23.9h-60v23.2H549.5z"/>
	</g>
	<g>
		<path class="st4" d="M489.5,47.1V23.9h60v23.2H489.5z"/>
	</g>
	<g transform="translate(677.5,35.5)">
		<text transform="matrix(1 0 0 1 0 9.5)" class="st11 st12 st13">SLL</text>
	</g>
	<g>
		<path class="st8" d="M673,47.1V23.9h-60v23.2H673z"/>
	</g>
	<g>
		<path class="st4" d="M613,47.1V23.9h60v23.2H613z"/>
	</g>
	<g transform="translate(797,35.5)">
		<text transform="matrix(1 0 0 1 0 9.5)" class="st11 st12 st13">MNI</text>
	</g>
	<g>
		<path class="st9" d="M792.5,47.1V23.9h-60v23.2H792.5z"/>
	</g>
	<g>
		<path class="st4" d="M732.5,47.1V23.9h60v23.2H732.5z"/>
	</g>
</g>
</svg>
